<svg width="77" height="16" viewBox="0 0 77 16" fill="none" xmlns="http://www.w3.org/2000/svg">
<g clip-path="url(#clip0_828_6546)">
<path fill-rule="evenodd" clip-rule="evenodd" d="M65.0148 2.09259C65.0123 1.81678 65.0649 1.54325 65.1694 1.28801C65.2739 1.03276 65.4283 0.800923 65.6235 0.606064C65.8187 0.411204 66.0508 0.257237 66.3062 0.153171C66.5617 0.049105 66.8353 -0.00296843 67.1111 -2.11037e-06C68.2963 -2.11037e-06 69.2267 0.909627 69.2267 2.09259C69.2267 3.27555 68.2904 4.18518 67.1111 4.18518C66.8353 4.18815 66.5617 4.13608 66.3062 4.03201C66.0508 3.92794 65.8187 3.77398 65.6235 3.57912C65.4283 3.38426 65.2739 3.15242 65.1694 2.89717C65.0649 2.64193 65.0123 2.3684 65.0148 2.09259ZM6.64497 5.31164C6.63108 5.32553 6.61224 5.33333 6.59259 5.33333H3.85185C2.83028 5.33333 1.85054 4.92751 1.12818 4.20515C0.405819 3.48279 0 2.50306 0 1.48148V0.0740741C0 0.0544284 0.00780421 0.0355874 0.0216958 0.0216958C0.0355874 0.00780421 0.0544284 0 0.0740741 0H6.59259C6.61224 0 6.63108 0.00780421 6.64497 0.0216958C6.65886 0.0355874 6.66667 0.0544284 6.66667 0.0740741V5.25926C6.66667 5.2789 6.65886 5.29775 6.64497 5.31164ZM9.40743 0H21.2593C21.2789 0 21.2978 0.00780421 21.3117 0.0216958C21.3255 0.0355874 21.3334 0.0544284 21.3334 0.0740741V5.25926C21.3334 5.2789 21.3255 5.29775 21.3117 5.31164C21.2978 5.32553 21.2789 5.33333 21.2593 5.33333H17.3334C16.6261 5.33333 15.9478 5.61428 15.4477 6.11438C14.9476 6.61448 14.6667 7.29276 14.6667 8C14.6667 8.70724 14.9476 9.38552 15.4477 9.88562C15.9478 10.3857 16.6261 10.6667 17.3334 10.6667H18.5926C18.6123 10.6667 18.6311 10.6745 18.645 10.6884C18.6589 10.7023 18.6667 10.7211 18.6667 10.7407V15.9259C18.6667 15.9456 18.6589 15.9644 18.645 15.9783C18.6311 15.9922 18.6123 16 18.5926 16H2.74076C2.72112 16 2.70227 15.9922 2.68838 15.9783C2.67449 15.9644 2.66669 15.9456 2.66669 15.9259V10.7407C2.66669 10.7211 2.67449 10.7023 2.68838 10.6884C2.70227 10.6745 2.72112 10.6667 2.74076 10.6667H6.66669C7.37393 10.6667 8.05221 10.3857 8.55231 9.88562C9.0524 9.38552 9.33335 8.70724 9.33335 8V0.0740741C9.33335 0.0544284 9.34116 0.0355874 9.35505 0.0216958C9.36894 0.00780421 9.38778 0 9.40743 0ZM51.4266 9.54149V16H47.6963V10.2637C47.6963 9.00445 47.3926 8.0726 45.9703 8.0726C45.344 8.07465 44.7335 8.26996 44.2222 8.63186V16H40.5185V5.33335H43.6192L44.0155 6.39334C44.985 5.5313 46.239 5.05802 47.5363 5.06446C50.0044 5.06446 51.4266 6.55631 51.4266 9.54149ZM59.3756 16.0036L64.0422 5.33698H60.1926L58 11.7303L55.7378 5.33698H51.8859L56.6459 16.0036H59.3756ZM65.2534 5.34149H68.9852V15.977H65.2534V5.34149ZM71.2659 12.9059V0H74.8793V12.2733C74.8793 13.3578 75.3755 13.6163 76.4148 13.4133V15.503C75.9859 15.7289 75.3311 16 74.1341 16C72.4178 16 71.2659 15.3904 71.2659 12.9059ZM30.1904 0H31.3519L39.0082 16H35.1563L34.0452 13.4815H27.6008L26.5185 16H22.6667L30.1904 0ZM30.7778 5.68074L28.8037 10.6615H32.7859L30.7778 5.68074Z" fill="white"/>
</g>
<defs>
<clipPath id="clip0_828_6546">
<rect width="76.6667" height="16" fill="white"/>
</clipPath>
</defs>
</svg>
